# Blender v2.79 (sub 0) OBJ File: 'legitcrystal.blend'
# www.blender.org
mtllib crystal.mtl
o Cube
v 1.000000 0.024572 -1.000000
v 1.000000 0.024572 1.000000
v -1.000000 0.024572 1.000000
v -1.000000 0.024572 -1.000000
v 0.822779 0.169194 -0.822778
v 0.822778 0.351048 0.822779
v -0.822779 0.935292 0.822778
v -0.822779 0.351048 -0.822779
v 0.822778 0.351048 0.000001
v 0.000000 0.351048 -0.822778
v -0.000000 0.351048 0.822779
v -0.822779 0.351048 -0.000000
v -0.000000 0.538306 0.000000
v 1.349763 2.308505 0.626120
v 1.349762 2.640646 1.448899
v 0.735703 2.288689 1.256724
v 0.526984 1.976955 0.626120
v -1.231369 2.555785 -1.214103
v -2.054147 3.292395 -1.527163
v -1.433245 2.555785 -0.704385
v -0.553073 1.838445 -0.281754
v 0.822779 0.260449 -0.411389
v 0.411390 0.283099 -0.822778
v 0.000000 0.351048 -0.411389
v 0.411389 0.351048 0.000000
v 0.411389 0.351048 -0.411389
v 0.654678 1.261894 -0.655845
v 0.539889 1.103711 -0.374898
v 0.873013 1.261894 -0.604475
v 0.951279 1.463967 -0.786287
vt 0.000400 0.309523
vt 0.309523 0.000400
vt 0.309523 0.309523
vt 0.403383 0.536808
vt 0.279384 0.667072
vt 0.272961 0.536808
vt 0.895679 0.375985
vt 0.677937 0.328491
vt 0.987060 0.328491
vt 0.405752 0.785248
vt 0.278582 0.785248
vt 0.433144 0.727832
vt 0.546721 0.933501
vt 0.689310 0.850711
vt 0.851368 0.881090
vt 0.124020 0.932081
vt 0.277766 0.872514
vt 0.341620 0.881233
vt 0.000400 0.343298
vt 0.111000 0.638021
vt 0.000400 0.719109
vt 0.000400 0.719909
vt 0.053728 0.852892
vt 0.022950 0.895913
vt 0.546721 0.416735
vt 0.650253 0.630667
vt 0.546721 0.786706
vt 0.809159 0.019666
vt 0.911893 0.108900
vt 0.809159 0.156807
vt 0.739016 0.409594
vt 0.789900 0.675656
vt 0.677747 0.426598
vt 0.808359 0.000400
vt 0.722952 0.252228
vt 0.677937 0.000400
vt 0.243268 0.354506
vt 0.124020 0.637616
vt 0.124020 0.310323
vt 0.885595 0.619350
vt 0.808825 0.583478
vt 0.878334 0.409594
vt 0.677137 0.013916
vt 0.668483 0.408794
vt 0.546721 0.237843
vt 0.310323 0.031276
vt 0.413924 0.369843
vt 0.310323 0.536008
vt 0.545921 0.061678
vt 0.434488 0.395373
vt 0.434488 0.000400
vt 0.244068 0.373908
vt 0.307675 0.310345
vt 0.309159 0.375437
vt 0.436747 0.855944
vt 0.499597 0.791537
vt 0.502721 0.856593
vt 0.244068 0.439822
vt 0.307653 0.376237
vt 0.308509 0.440678
vt 0.318419 0.717656
vt 0.340102 0.690606
vt 0.377300 0.713580
vt 0.144740 0.932881
vt 0.258028 0.999600
vt 0.124020 0.999600
vt 0.489205 0.596636
vt 0.434488 0.747656
vt 0.434488 0.564246
vt 0.573827 0.991818
vt 0.721713 0.963693
vt 0.773602 0.991818
vt 0.000400 0.000400
vt 0.433688 0.689806
vt 0.831694 0.388028
vt 0.959668 0.363846
vt 0.704536 0.386279
vt 0.124020 0.727832
vt 0.148773 0.871714
vt 0.546721 0.787506
vt 0.814639 0.829150
vt 0.405752 0.896726
vt 0.433144 0.932081
vt 0.150608 0.874289
vt 0.123220 0.310323
vt 0.070262 0.719909
vt 0.676947 0.409594
vt 0.944905 0.000400
vt 0.677747 0.754523
vt 0.808025 0.420480
vt 0.807612 0.327691
vt 0.193692 0.727032
vt 0.808825 0.779295
vt 0.546721 0.015165
vt 0.615005 0.000400
vt 0.433688 0.000400
vt 0.491297 0.563446
vt 0.244090 0.310323
vt 0.434488 0.791537
vt 0.244068 0.376237
vt 0.272961 0.690606
vt 0.322109 0.979565
vt 0.441935 0.790738
vt 0.546721 0.934301
vn 0.0000 -1.0000 0.0000
vn -0.2166 0.9519 0.2166
vn 0.7995 0.6007 0.0000
vn -0.0000 0.4771 0.8789
vn -0.8789 0.4771 -0.0000
vn 0.0559 0.3386 -0.9393
vn 0.9632 -0.2492 0.1006
vn -0.8125 0.5830 -0.0037
vn -0.2660 0.2258 0.9372
vn -0.3828 0.8567 -0.3458
vn 0.0000 0.3594 -0.9332
vn -0.9462 0.3154 0.0718
vn -0.0000 -0.2185 0.9758
vn 0.5514 0.8052 0.2184
vn 0.8555 0.4254 -0.2951
vn -0.8686 -0.2631 0.4200
vn 0.0000 -0.1748 -0.9846
vn 0.2103 0.9548 -0.2103
vn 0.2609 0.9424 -0.2091
vn 0.1608 0.9738 -0.1608
vn -0.1648 0.6942 0.7006
vn 0.1876 0.4121 0.8916
vn 0.8920 -0.4521 0.0000
vn -0.2951 -0.1733 -0.9396
vn 0.5011 0.7056 -0.5010
vn 0.9491 0.3077 -0.0678
vn 0.5018 0.8445 -0.1873
vn 0.8789 0.4771 0.0000
vn 0.1188 0.1673 0.9787
vn -0.9787 0.1673 -0.1188
vn 0.2368 0.8552 -0.4611
vn 0.0000 0.5654 -0.8248
vn 0.0000 0.4771 -0.8789
vn 0.9656 -0.2600 0.0000
vn -0.7786 0.5711 -0.2600
vn -0.0441 0.1936 0.9801
vn -0.3544 0.8795 -0.3175
vn -0.1348 0.3346 -0.9327
vn 0.1571 0.3452 -0.9253
vn -0.9349 0.3212 0.1506
vn -0.1727 -0.2226 0.9595
vn 0.5967 0.7669 0.2363
vn 0.9202 0.3563 -0.1622
vn 0.9373 0.3485 0.0000
vn -0.9637 -0.2668 -0.0000
vn 0.2548 -0.1230 -0.9591
vn 0.0000 1.0000 -0.0000
vn 0.2123 0.9641 -0.1592
vn -0.1069 0.8844 0.4543
vn 0.4142 0.3482 0.8410
vn 0.8685 -0.4722 -0.1509
vn 0.0000 -0.2592 -0.9658
usemtl Material.001
s off
f 2/1/1 4/2/1 1/3/1
f 12/4/2 11/5/2 13/6/2
f 22/7/3 2/8/3 1/9/3
f 6/10/4 11/11/4 2/12/4
f 3/13/5 12/14/5 4/15/5
f 4/16/6 10/17/6 23/18/6
f 6/19/7 14/20/7 15/21/7
f 24/22/8 28/23/8 27/24/8
f 12/25/9 21/26/9 20/27/9
f 14/28/10 16/29/10 15/30/10
f 25/31/11 17/32/11 9/33/11
f 11/34/12 17/35/12 13/36/12
f 6/37/13 16/38/13 11/39/13
f 18/40/14 20/41/14 21/42/14
f 10/43/15 18/44/15 21/45/15
f 8/46/16 20/47/16 19/48/16
f 8/49/17 18/50/17 10/51/17
f 26/52/18 9/53/18 22/54/18
f 23/55/19 22/56/19 5/57/19
f 10/58/20 26/59/20 23/60/20
f 27/61/21 29/62/21 30/63/21
f 25/64/22 28/65/22 13/66/22
f 26/67/23 29/68/23 25/69/23
f 26/70/24 27/71/24 30/72/24
f 2/1/1 3/73/1 4/2/1
f 12/4/25 7/74/25 11/5/25
f 2/8/26 22/7/26 9/75/26
f 5/76/27 22/7/27 1/9/27
f 9/75/28 6/77/28 2/8/28
f 3/78/4 2/12/4 11/11/4
f 11/11/29 7/79/29 3/78/29
f 3/13/30 7/80/30 12/14/30
f 12/14/5 8/81/5 4/15/5
f 23/18/31 5/82/31 1/83/31
f 1/83/32 4/16/32 23/18/32
f 8/84/33 10/17/33 4/16/33
f 6/19/34 9/85/34 14/20/34
f 24/22/35 13/86/35 28/23/35
f 12/25/36 13/87/36 21/26/36
f 14/28/37 17/88/37 16/29/37
f 14/89/38 9/33/38 17/32/38
f 25/31/39 13/90/39 17/32/39
f 11/34/40 16/91/40 17/35/40
f 6/37/41 15/92/41 16/38/41
f 18/40/42 19/93/42 20/41/42
f 21/45/43 13/94/43 24/95/43
f 24/95/44 10/43/44 21/45/44
f 8/46/45 12/96/45 20/47/45
f 8/49/46 19/97/46 18/50/46
f 26/52/47 25/98/47 9/53/47
f 23/55/48 26/99/48 22/56/48
f 10/58/47 24/100/47 26/59/47
f 27/61/49 28/101/49 29/62/49
f 25/64/50 29/102/50 28/65/50
f 26/67/51 30/103/51 29/68/51
f 26/70/52 24/104/52 27/71/52
